# xmcd
#
# Track frame offsets: 
#        150
#        18174
#        38585
#        56622
#        79423
#        97009
#        123972
#        139398
#        155116
#        171967
#        195024
#
# Disc length: 2838 seconds
#
# Revision: 0
# Processed by: cddbd v1.5.2PL0 Copyright (c) Steve Scherf et al.
# Submitted via: ExactAudioCopyFreeDBPlugin 1.0
#
DISCID=8c0b140b
DTITLE=Leif de Leeuw Band - Until better times
DYEAR=2017
DGENRE=Blues
TTITLE0=All coming back
TTITLE1=Listen here people
TTITLE2=Until better times
TTITLE3=Getting older
TTITLE4=Thank you
TTITLE5=Mr. Hangman
TTITLE6=Doing it allright
TTITLE7=Afraid to fly
TTITLE8=Taking all my time
TTITLE9=Be loyal
TTITLE10=Dysphoria
EXTD=
EXTT0=
EXTT1=
EXTT2=
EXTT3=
EXTT4=
EXTT5=
EXTT6=
EXTT7=
EXTT8=
EXTT9=
EXTT10=
PLAYORDER=
